<svg width="128" height="128" viewBox="0 0 128 128" fill="none" xmlns="http://www.w3.org/2000/svg">
<rect width="128" height="128" fill="white"/>
<path d="M20.9402 36.7412C19.2297 36.0846 19.229 33.6649 20.939 33.0073L59.9717 17.9972C60.4334 17.8196 60.9445 17.8195 61.4063 17.9967L100.736 33.0942C102.447 33.7508 102.448 36.1704 100.738 36.8281L61.7049 51.8382C61.2432 52.0158 60.7321 52.0159 60.2703 51.8386L20.9402 36.7412Z" fill="#FED230"/>
<path d="M55.3717 56.6022L17.5557 42.086C16.2544 41.5865 14.854 42.5379 14.8391 43.9317L14.493 76.1921C14.4772 77.6633 16.0019 78.6474 17.3361 78.0271L55.4982 60.2829C57.0996 59.5383 57.0205 57.2351 55.3717 56.6022Z" fill="#F04C5F"/>
<path d="M63.8238 58.1429C63.8238 57.3126 64.3368 56.5686 65.1129 56.2735L103.341 41.7359C104.65 41.2381 106.052 42.2049 106.052 43.6053V78.5805C106.052 79.4108 105.539 80.1548 104.763 80.4499L66.5347 94.9875C65.2258 95.4853 63.8238 94.5185 63.8238 93.1181V58.1429Z" fill="#42CDF3"/>
<path fill-rule="evenodd" clip-rule="evenodd" d="M11.4842 34.7573C12.9765 32.1458 15.5208 28.7186 19.7251 27.1018L57.701 12.4981C59.6231 11.7589 61.7511 11.7583 63.6737 12.4963L101.947 27.188C106.647 28.8096 109.026 32.7406 110.216 35.352C111.405 37.9635 112 40.696 112 44.155V78.3191C112 81.7759 109.864 84.8733 106.633 86.1021L69.1626 100.351C63.7132 102.424 57.8761 98.3986 57.8761 92.5684V65.7005C57.6578 65.8258 57.4307 65.9436 57.1948 66.0532L20.3891 83.1667C14.8344 85.7495 8.48637 81.6524 8.55208 75.5269L8.88587 44.4132C8.92609 40.6641 9.69991 37.8798 11.4842 34.7573ZM64.1014 57.2889C63.9228 57.6253 63.8238 58.0064 63.8238 58.4043V92.5684C63.8238 94.2341 65.4915 95.3842 67.0485 94.7921L104.519 80.5428C105.442 80.1917 106.052 79.3068 106.052 78.3191V44.155C106.052 42.8276 104.993 41.8277 103.775 41.7758C103.465 41.7626 103.144 41.811 102.828 41.9313L65.3572 56.1806C64.8059 56.3902 64.3662 56.7903 64.1014 57.2889ZM60.9484 51.9442C61.2508 51.9491 61.5538 51.8963 61.8408 51.7859L99.8167 37.1822C100.211 37.0305 100.529 36.8001 100.77 36.5214C100.835 36.4464 100.895 36.3678 100.949 36.2864C101.727 35.1103 101.349 33.3294 99.8153 32.7406L61.5423 18.0489C60.9929 17.8381 60.3849 17.8383 59.8358 18.0494L21.8599 32.6532C19.8257 33.4355 19.8266 36.3138 21.8613 37.0948L60.1343 51.7865C60.3966 51.8871 60.6722 51.9397 60.9484 51.9442ZM17.8814 77.7735C16.2944 78.5115 14.4806 77.3409 14.4994 75.5907L14.8332 44.477C14.851 42.819 16.5168 41.6872 18.0647 42.2814L54.5367 56.2817C56.498 57.0346 56.5921 59.7743 54.6872 60.66L17.8814 77.7735Z" fill="white"/>
<path d="M109.977 82.073C109.72 76.9766 107.843 72.1186 104.653 68.19C103.791 67.1279 102.211 67.1352 101.243 68.1025L100.839 68.507C99.8716 69.4743 99.8873 71.034 100.716 72.1223C102.955 75.0616 104.27 78.6239 104.459 82.352C104.689 86.9094 103.219 91.39 100.335 94.9257C97.45 98.4613 93.3555 100.8 88.8446 101.489C86.546 101.84 84.2227 101.75 81.9928 101.245L82.5913 100.208C83.5447 98.5569 82.3529 96.4927 80.4461 96.4927L71.8656 96.4927C69.9588 96.4927 68.7671 98.5569 69.7205 100.208L74.0107 107.639C74.9641 109.29 77.3476 109.29 78.301 107.639L79.1314 106.201C82.5202 107.226 86.1223 107.495 89.679 106.952C95.5432 106.056 100.866 103.016 104.616 98.419C108.367 93.8226 110.277 87.9976 109.977 82.073Z" fill="black"/>
<path d="M57.0306 81.8047C57.2883 86.9011 59.1654 91.7591 62.3551 95.6877C63.2174 96.7497 64.7973 96.7425 65.7646 95.7752L66.1691 95.3707C67.1364 94.4034 67.1208 92.8436 66.2919 91.7553C64.0532 88.816 62.738 85.2537 62.5495 81.5256C62.3191 76.9683 63.7886 72.4877 66.6733 68.952C69.558 65.4163 73.6526 63.0774 78.1634 62.3885C80.462 62.0374 82.7853 62.1275 85.0153 62.6329L84.4168 63.6695C83.4634 65.3208 84.6551 67.3849 86.5619 67.3849H95.1425C97.0492 67.3849 98.241 65.3208 97.2876 63.6695L92.9973 56.2385C92.0439 54.5872 89.6605 54.5872 88.7071 56.2385L87.8766 57.6768C84.4879 56.6519 80.8857 56.3826 77.3291 56.9258C71.4648 57.8215 66.1419 60.8621 62.3916 65.4586C58.6414 70.0551 56.731 75.88 57.0306 81.8047Z" fill="black"/>
</svg>
